# xmcd
#
# Track frame offsets:
#	198
#	12350
#	25725
#	43080
#	56058
#	68763
#	80795
#	93633
#	104058
#	119823
#	132108
#	144060
#	153803
#	167220
#	179075
#
# Disc length: 2590 seconds
#
# Revision: 0
# Processed by: cddbd v1.5.1PL2 Copyright (c) Steve Scherf et al.
# Submitted via: dBpowerAMP V4.0
#
DISCID=d50a1c0f
DTITLE=Various Artist - The best of Soul.3
DYEAR=1900
DGENRE=Soul
TTITLE0=Martha Reeves -  Say A Little Prayer
TTITLE1=James Brown - It's A Man's Man's World
TTITLE2=Sam and Dave - How Sweet It Is To Be Loved By You
TTITLE3=Righteous Brothers - You've Lost That Lovin' Feelin'
TTITLE4=The Drifters - On Broadway
TTITLE5=Jackie Wilson - Doggin' Around
TTITLE6=Brook Benton - Kiddi
TTITLE7=Barbara Mason - From His Woman To You
TTITLE8=Brenton Wood - Gimme Little Sign
TTITLE9=Dobie Gray - Drift Away
TTITLE10=Mighty Sparrow and Byron Lee - Only A Fool
TTITLE11=Nina Simone - Don't Let Me Be Misunderstood
TTITLE12=The Platters - Crying In The Chapel
TTITLE13=Percy Sledger - I've Been Loving You Too Long
TTITLE14=Joe Tex - A Woman Can Change A Man
EXTD=Arcade Studios
EXTT0=
EXTT1=
EXTT2=
EXTT3=
EXTT4=
EXTT5=
EXTT6=
EXTT7=
EXTT8=
EXTT9=
EXTT10=
EXTT11=
EXTT12=
EXTT13=
EXTT14=
PLAYORDER=
